<?xml version="1.0" encoding="UTF-8"?>
<!DOCTYPE svg PUBLIC "-//W3C//DTD SVG 1.1//EN" "http://www.w3.org/Graphics/SVG/1.1/DTD/svg11.dtd">
<!-- Creator: CorelDRAW Standard 2024 (Evaluation Version) -->
<svg xmlns="http://www.w3.org/2000/svg" xml:space="preserve" width="254px" height="305px" version="1.1" style="shape-rendering:geometricPrecision; text-rendering:geometricPrecision; image-rendering:optimizeQuality; fill-rule:evenodd; clip-rule:evenodd"
viewBox="0 0 253.996 305.679"
 xmlns:xlink="http://www.w3.org/1999/xlink"
 xmlns:xodm="http://www.corel.com/coreldraw/odm/2003">
 <defs>
  <style type="text/css">
   <![CDATA[
    .fil0 {fill:#C39F56}
   ]]>
  </style>
 </defs>
 <g id="Camada_x0020_1">
  <metadata id="CorelCorpID_0Corel-Layer"/>
  <g id="_1918687132096">
   <g>
    <path class="fil0" d="M168.614 43l-135.475 0 0 3.245c11.531,0 19.686,3.244 19.686,14.331l0 154.123c0,11.086 -8.155,14.331 -19.686,14.331l0 3.245 56.246 0 0 -3.245c-11.531,0 -19.686,-3.245 -19.686,-14.331l0 -74.899 51.973 0c23.622,0 27.841,7.842 27.841,20.55l3.375 0 0 -44.344 -3.375 0c0,12.708 -4.219,20.55 -27.841,20.55l-51.973 0 0 -90.311 52.794 0c31.497,0 41.341,15.142 45.559,29.202l3.375 0 -2.813 -32.447z"/>
    <path class="fil0" d="M218.045 73.404l-135.475 0 0 3.245c11.53,0 19.686,3.244 19.686,14.331l0 38.511 16.873 0 0 -52.842 52.795 0c31.497,0 41.34,15.142 45.559,29.202l3.374 0 -2.812 -32.447zm-115.789 63.152l0 108.548c0,11.086 -8.156,14.33 -19.686,14.33l0 3.245 56.246 0 0 -3.245c-11.531,0 -19.687,-3.244 -19.687,-14.33l0 -74.9 51.973 0c23.623,0 27.841,7.842 27.841,20.55l3.375 0 0 -44.344 -3.375 0c0,12.708 -4.218,20.55 -27.841,20.55l-51.973 0 0 -30.404 -16.873 0z"/>
   </g>
   <polygon class="fil0" points="14.116,232.123 14.116,16.138 14.116,14.115 16.138,14.115 239.881,14.115 239.881,18.16 18.16,18.16 18.16,232.123 "/>
   <polygon class="fil0" points="239.881,73.556 239.881,289.541 239.881,291.563 237.859,291.563 14.116,291.563 14.116,287.519 235.837,287.519 235.837,73.556 "/>
   <polygon class="fil0" points="0,246.238 0,2.022 0,0 2.022,0 253.996,0 253.996,4.044 4.044,4.044 4.044,246.238 "/>
   <polygon class="fil0" points="253.996,59.44 253.996,303.657 253.996,305.679 251.975,305.679 0,305.679 0,301.635 249.953,301.635 249.953,59.44 "/>
  </g>
 </g>
</svg>
